# xmcd
#
# Track frame offsets:
#	150
#	3994
#	17733
#	28350
#	40802
#	65997
#	76988
#	85277
#	93611
#	100325
#	116175
#	127393
#	142884
#	162582
#	177516
#	188523
#	198868
#	211025
#	221943
#	243517
#	253739
#	264455
#	320500
#
# Disc length: 4434 seconds
#
# Revision: 0
# Processed by: cddbd v1.5.2PL0 Copyright (c) Steve Scherf et al.
# Submitted via: EasyCDDAExtractor 12.0.7.1
#
DISCID=5a115017
DTITLE=Fats Domino - Live At The C.C.H. Hamburg 1981
DYEAR=2005
DGENRE=Blues
TTITLE0=Introduction by Lee Allen
TTITLE1=I'm Walkin'
TTITLE2=Song For Rosemary
TTITLE3=My Girl Josephine
TTITLE4=Jambalaya (On the Bayou)
TTITLE5=Blue Monday
TTITLE6=I´m Ready
TTITLE7=Red Sails In The Sunset
TTITLE8=Whole Lotta Of Loving
TTITLE9=Sick And Tired
TTITLE10=I Want To Walk You Home
TTITLE11=Medley I´m In Love Again-Honey Chile
TTITLE12=Let The Four Winds Blow
TTITLE13=Whiskey Heaven
TTITLE14=The Fat Man
TTITLE15=Blueberry Hill
TTITLE16=When My Dreamboat Comes Home
TTITLE17=Walking To New Orleans
TTITLE18=All By Myself
TTITLE19=Valley Of Tears
TTITLE20=I´m Gonna Be A Wheel Someday
TTITLE21=Medley When The Saints Go Marching in-Sentimental Journey
TTITLE22=Lee Allen Introduces The Band
EXTD=
EXTT0=
EXTT1=
EXTT2=
EXTT3=
EXTT4=
EXTT5=
EXTT6=
EXTT7=
EXTT8=
EXTT9=
EXTT10=
EXTT11=
EXTT12=
EXTT13=
EXTT14=
EXTT15=
EXTT16=
EXTT17=
EXTT18=
EXTT19=
EXTT20=
EXTT21=
EXTT22=
PLAYORDER=
